<svg xmlns="http://www.w3.org/2000/svg" xmlns:xlink="http://www.w3.org/1999/xlink" width="44.6" height="44.504" viewBox="0 0 44.6 44.504">
  <defs>
    <linearGradient id="linear-gradient" x1="0.501" y1="0.999" x2="0.501" gradientUnits="objectBoundingBox">
      <stop offset="0" stop-color="#7a65cc"/>
      <stop offset="1" stop-color="#a592ef"/>
    </linearGradient>
  </defs>
  <g id="accounting-software" transform="translate(-2.7 -2.696)">
    <path id="Path_20" data-name="Path 20" d="M31.9,18.2V5.1a2.388,2.388,0,0,0-1.5-2.2,2.3,2.3,0,0,0-2.6.5L25,6.3,21.7,3a.764.764,0,0,0-.5-.2c-.2,0-.3.1-.5.2L17.4,6.3,14,2.9a1.072,1.072,0,0,0-.6-.2c-.2,0-.3.1-.5.2L9.6,6.3,6.8,3.4a2.3,2.3,0,0,0-2.6-.5A2.388,2.388,0,0,0,2.7,5.1V36.5a2.355,2.355,0,0,0,4,1.7l2.9-2.9,3.3,3.3a.668.668,0,0,0,1,0l3.3-3.3,3.3,3.3a.668.668,0,0,0,1,0l1.7-1.7V21.4a3.138,3.138,0,0,1,3.2-3.1h5.5ZM21.1,23.7H8.9a.751.751,0,0,1-.7-.7.684.684,0,0,1,.7-.7H21a.751.751,0,0,1,.7.7C21.7,23.4,21.5,23.7,21.1,23.7Zm0-3.7H8.9a.751.751,0,0,1-.7-.7.684.684,0,0,1,.7-.7H21a.751.751,0,0,1,.7.7A.563.563,0,0,1,21.1,20Zm3.2-3.8H8.9a.684.684,0,0,1-.7-.7.751.751,0,0,1,.7-.7H24.3a.751.751,0,0,1,.7.7A.632.632,0,0,1,24.3,16.2Zm0-3.6H8.9a.7.7,0,1,1,0-1.4H24.3a.7.7,0,1,1,0,1.4Z" fill="url(#linear-gradient)"/>
    <path id="Path_21" data-name="Path 21" d="M45.6,19.6h-19a1.774,1.774,0,0,0-1.8,1.7V45.4a1.793,1.793,0,0,0,1.8,1.8h19a1.71,1.71,0,0,0,1.7-1.8v-24A1.71,1.71,0,0,0,45.6,19.6Z" fill="#472dc2"/>
    <path id="Path_22" data-name="Path 22" d="M33.5,42.4a.707.707,0,0,1-1,1l-.7-.7-.7.7a.707.707,0,0,1-1-1l.7-.7-.7-.7a.707.707,0,0,1,1-1l.7.7.7-.7a.707.707,0,0,1,1,1l-.7.7Z" fill="#fff"/>
    <path id="Path_23" data-name="Path 23" d="M33.5,35.2h-1v1a.7.7,0,0,1-1.4,0v-1h-1a.7.7,0,0,1,0-1.4h1v-1a.7.7,0,1,1,1.4,0v1h1a.7.7,0,0,1,0,1.4Z" fill="#fff"/>
    <path id="Path_24" data-name="Path 24" d="M42,43.7H38.7a.7.7,0,0,1,0-1.4H42a.7.7,0,0,1,0,1.4Z" fill="#fff"/>
    <path id="Path_25" data-name="Path 25" d="M42,40.7H38.7a.7.7,0,0,1,0-1.4H42a.7.7,0,0,1,0,1.4Z" fill="#fff"/>
    <path id="Path_26" data-name="Path 26" d="M42,35.2H38.7a.7.7,0,0,1,0-1.4H42a.7.7,0,0,1,0,1.4Z" fill="#fff"/>
    <path id="Path_27" data-name="Path 27" d="M43.6,29.3a.684.684,0,0,1-.7.7H29.2a.684.684,0,0,1-.7-.7V23.9a.684.684,0,0,1,.7-.7H42.9a.684.684,0,0,1,.7.7v5.4Z" fill="#fc0"/>
  </g>
</svg>
