<svg id="consult" xmlns="http://www.w3.org/2000/svg" width="24" height="24" viewBox="0 0 24 24">
  <g id="Group">
    <circle id="Oval" cx="12" cy="12" r="12" fill="#cd2e4c"/>
  </g>
  <g id="_24-hours-support" data-name="24-hours-support" transform="translate(4.373 3.83)">
    <path id="Path" d="M.535,3.751.1,4.169a.311.311,0,0,0-.1.225v.179a.317.317,0,0,0,.319.314H2.938a.317.317,0,0,0,.319-.314V4.342a.317.317,0,0,0-.319-.314H1.491l.04-.036c.946-.9,1.615-1.6,1.615-2.518A1.441,1.441,0,0,0,1.577,0,2.216,2.216,0,0,0,.271.42a.311.311,0,0,0-.1.38L.252.976a.317.317,0,0,0,.206.173A.324.324,0,0,0,.726,1.1,1.276,1.276,0,0,1,1.451.859a.623.623,0,0,1,.717.688C2.162,2.163,1.641,2.717.535,3.751Z" transform="translate(4.887 5.973)" fill="#fff"/>
    <path id="Shape" d="M2.252,4.79a.3.3,0,0,1-.3-.312V3.583H.3A.3.3,0,0,1,0,3.271v-.22a.322.322,0,0,1,.053-.179L1.871.134A.291.291,0,0,1,2.113,0h.422a.305.305,0,0,1,.3.312V2.755h.292a.3.3,0,0,1,.3.312v.2a.3.3,0,0,1-.3.312H2.832v.895a.305.305,0,0,1-.3.312Z" transform="translate(8.11 5.822)" fill="#fff"/>
    <path id="Path-2" data-name="Path" d="M7.737,15A6.369,6.369,0,0,1,7.178,2.279V3.294a.2.2,0,0,0,.1.172.2.2,0,0,0,.2-.01L9.813,1.907a.194.194,0,0,0,0-.324L7.485.033a.2.2,0,0,0-.2-.01.2.2,0,0,0-.1.172V.983A7.7,7.7,0,0,0,0,8.626a7.752,7.752,0,0,0,13.031,5.588l-.892-.941A6.442,6.442,0,0,1,7.737,15Z" transform="translate(0 0)" fill="#fff"/>
    <path id="Path-3" data-name="Path" d="M1.629,1.047A6.658,6.658,0,0,0,.828,0L0,.758a5.545,5.545,0,0,1,.667.871Z" transform="translate(12.488 3.258)" fill="#fff"/>
    <path id="Path-4" data-name="Path" d="M.3,1.629l1.325-.171A7.227,7.227,0,0,0,1.263,0L0,.418A6.008,6.008,0,0,1,.3,1.629Z" transform="translate(13.574 5.973)" fill="#fff"/>
    <path id="Path-5" data-name="Path" d="M1.629.673A6.734,6.734,0,0,0,.458,0L0,1.069a5.6,5.6,0,0,1,.974.56Z" transform="translate(10.316 1.629)" fill="#fff"/>
    <path id="Path-6" data-name="Path" d="M0,.915l.882.714a6.687,6.687,0,0,0,.747-1.1L.622,0A5.56,5.56,0,0,1,0,.915Z" transform="translate(13.031 11.402)" fill="#fff"/>
    <path id="Path-7" data-name="Path" d="M.238,0A6.179,6.179,0,0,1,0,1.27l1.342.359A7.432,7.432,0,0,0,1.629.1Z" transform="translate(13.574 8.687)" fill="#fff"/>
  </g>
</svg>
