<svg id="secure" xmlns="http://www.w3.org/2000/svg" width="24" height="24" viewBox="0 0 24 24">
  <g id="Group_3" data-name="Group 3">
    <circle id="Oval" cx="12" cy="12" r="12" fill="#654be3"/>
  </g>
  <g id="checkout" transform="translate(5.136 4.738)">
    <path id="Path" d="M.113,2.057c.013.19.118.332.241.332l.025,0c.133-.021.23-.2.216-.406L.484.332C.47.129.351-.019.218,0S-.012.2,0,.408Z" transform="translate(5.376 6.57)" fill="#fff"/>
    <path id="Path-2" data-name="Path" d="M.218,2.387l.025,0c.123,0,.228-.142.241-.332L.6.408C.61.2.513.023.38,0S.127.129.113.332L0,1.981C-.013,2.185.084,2.366.218,2.387Z" transform="translate(7.765 6.57)" fill="#fff"/>
    <path id="Shape" d="M0,1.194A1.194,1.194,0,1,1,1.194,2.389,1.2,1.2,0,0,1,0,1.194Z" transform="translate(3.584 11.349)" fill="#fff"/>
    <path id="Shape-2" data-name="Shape" d="M0,1.194A1.194,1.194,0,1,1,1.194,2.389,1.2,1.2,0,0,1,0,1.194Z" transform="translate(7.765 11.349)" fill="#fff"/>
    <path id="Shape-3" data-name="Shape" d="M3.959,7.765a.429.429,0,0,1-.415-.325L2.219,2.281c0-.009,0-.017-.007-.026L1.856.869H.429A.432.432,0,0,1,0,.434.432.432,0,0,1,.429,0H2.188A.431.431,0,0,1,2.6.325l.359,1.4h8.554a.427.427,0,0,1,.339.169.438.438,0,0,1,.076.375L10.6,7.44a.43.43,0,0,1-.416.325Z" transform="translate(0 2.986)" fill="#fff"/>
    <path id="Path-3" data-name="Path" d="M.407,2.215H2.792l-.623.647a.435.435,0,0,0,0,.6.4.4,0,0,0,.576,0L4.062,2.091a.435.435,0,0,0,0-.6L2.744.124a.4.4,0,0,0-.576,0,.435.435,0,0,0,0,.6l.623.647H.407a.423.423,0,0,0,0,.846Z" transform="translate(4.778 0)" fill="#fff"/>
  </g>
</svg>
