<svg xmlns="http://www.w3.org/2000/svg" xmlns:xlink="http://www.w3.org/1999/xlink" width="40.6" height="45.7" viewBox="0 0 40.6 45.7">
  <defs>
    <linearGradient id="linear-gradient" x1="0.498" y1="0.988" x2="0.498" y2="-0.005" gradientUnits="objectBoundingBox">
      <stop offset="0" stop-color="#7a65cc"/>
      <stop offset="1" stop-color="#a592ef"/>
    </linearGradient>
    <linearGradient id="linear-gradient-2" x1="0.502" y1="1.002" x2="0.502" y2="0.003" xlink:href="#linear-gradient"/>
  </defs>
  <g id="pos-software" transform="translate(-4.7 -2.2)">
    <path id="Path_949" data-name="Path 949" d="M29.9,7.5H25v4.4h1a.7.7,0,1,1,0,1.4H9.3a.7.7,0,1,1,0-1.4h1V7.5H5.4a.669.669,0,0,0-.7.6V47.2a.684.684,0,0,0,.7.7H30a.684.684,0,0,0,.7-.7V8.2A.849.849,0,0,0,29.9,7.5Z" fill="#472dc2"/>
    <path id="Path_950" data-name="Path 950" d="M43.5,16.3H31.9V19H45.3V18A1.844,1.844,0,0,0,43.5,16.3Z" fill="#fc0"/>
    <path id="Path_951" data-name="Path 951" d="M18.7,29.3c-.1-.1-.2-.1-.4-.1H17a1,1,0,0,0,0,2h1.3a.6.6,0,0,0,.4-.1.975.975,0,0,0,0-1.8Z" fill="#fff"/>
    <path id="Path_952" data-name="Path 952" d="M24.7,31.2h1.6a1,1,0,0,0,1-1,.876.876,0,0,0-.7-.9H24.7a.6.6,0,0,0-.4.1,1.149,1.149,0,0,0-.6.9A.988.988,0,0,0,24.7,31.2Z" fill="#fff"/>
    <path id="Path_953" data-name="Path 953" d="M10.6,29.2H9.1a1,1,0,0,0,0,2h1.6a1,1,0,0,0,1-1A1.175,1.175,0,0,0,10.6,29.2Z" fill="#fff"/>
    <path id="Path_954" data-name="Path 954" d="M18.5,35.7H16.9a1,1,0,0,0-1,1,.945.945,0,0,0,1,1h1.6a1,1,0,0,0,0-2Z" fill="#fff"/>
    <path id="Path_955" data-name="Path 955" d="M24.7,35.7a1,1,0,0,0-1,1,.945.945,0,0,0,1,1h1.6a1,1,0,0,0,1-1,.945.945,0,0,0-1-1Z" fill="#fff"/>
    <path id="Path_956" data-name="Path 956" d="M10.6,35.7H9.1a1,1,0,0,0-1,1,.945.945,0,0,0,1,1h1.6a1,1,0,0,0,1-1A1.028,1.028,0,0,0,10.6,35.7Z" fill="#fff"/>
    <path id="Path_957" data-name="Path 957" d="M18.5,42.2H16.9a1,1,0,0,0,0,2h1.6a1,1,0,0,0,1-1A1.166,1.166,0,0,0,18.5,42.2Z" fill="#fff"/>
    <path id="Path_958" data-name="Path 958" d="M26.3,42.2H24.7a1,1,0,0,0,0,2h1.6a1,1,0,0,0,1-1A1.166,1.166,0,0,0,26.3,42.2Z" fill="#fff"/>
    <path id="Path_959" data-name="Path 959" d="M10.6,42.2H9.1a1,1,0,0,0,0,2h1.6a1,1,0,0,0,1-1A1.175,1.175,0,0,0,10.6,42.2Z" fill="#fff"/>
    <path id="Path_960" data-name="Path 960" d="M18.9,16.2H8.7a.684.684,0,0,0-.7.7v6.9a.684.684,0,0,0,.7.7h18a.684.684,0,0,0,.7-.7v-7a.675.675,0,0,0-.4-.6c-.1,0-.2-.1-.3-.1H18.9Z" fill="#fc0"/>
    <path id="Path_961" data-name="Path 961" d="M23.8,7.5V2.2H11.6V12H23.8ZM13.5,6.2a.684.684,0,0,1,.7-.7h7.1a.684.684,0,0,1,.7.7h0a.669.669,0,0,1-.7.6H14.2a.669.669,0,0,1-.7-.6Zm7.7,3.9H14.1a.7.7,0,1,1,0-1.4h7.1a.7.7,0,1,1,0,1.4Z" fill="url(#linear-gradient)"/>
    <path id="Path_962" data-name="Path 962" d="M31.9,20.3V33.7H43.5A1.685,1.685,0,0,0,45.2,32V20.3Z" fill="url(#linear-gradient-2)"/>
  </g>
</svg>
