<svg xmlns="http://www.w3.org/2000/svg" xmlns:xlink="http://www.w3.org/1999/xlink" width="46.521" height="46.7" viewBox="0 0 46.521 46.7">
  <defs>
    <linearGradient id="linear-gradient" x1="0.501" y1="-0.001" x2="0.501" y2="0.999" gradientUnits="objectBoundingBox">
      <stop offset="0" stop-color="#a592ef"/>
      <stop offset="1" stop-color="#7a65cc"/>
    </linearGradient>
    <linearGradient id="linear-gradient-2" x1="0.5" y1="-0.001" x2="0.5" y2="0.999" xlink:href="#linear-gradient"/>
  </defs>
  <g id="hr-software" transform="translate(-1.7 -1.7)">
    <path id="Path_655" data-name="Path 655" d="M37.9,31.9h0l-.1.7a1.473,1.473,0,0,1-1.5,1.5h0a1.538,1.538,0,0,1-1.5-1.5V24a2.8,2.8,0,0,1,2.8-2.8h1.5l2.4,2.3L44,21.2h1.7a2.814,2.814,0,0,1,2.5,3.1v8.3a1.5,1.5,0,0,1-3,0v-.7H37.9Z" fill="#fc0"/>
    <path id="Path_656" data-name="Path 656" d="M41.6,46.7a1.6,1.6,0,0,1-3.2,0L38,31.8h7.4L45,46.7a1.7,1.7,0,0,1-3.4,0Z" fill="#fc0"/>
    <path id="Path_657" data-name="Path 657" d="M44.2,16.2v1.1a2.7,2.7,0,0,1-5.4,0V16.2a2.7,2.7,0,0,1,5.4,0Z" fill="#fc0"/>
    <path id="Path_658" data-name="Path 658" d="M21.3,31.9h0l-.1.7a1.473,1.473,0,0,1-1.5,1.5h0a1.538,1.538,0,0,1-1.5-1.5V24A2.8,2.8,0,0,1,21,21.2h1.5l2.4,2.3,2.5-2.3h1.7a2.814,2.814,0,0,1,2.5,3.1v8.3a1.5,1.5,0,0,1-3,0v-.7H21.3Z" fill="#472dc2"/>
    <path id="Path_659" data-name="Path 659" d="M25,46.7a1.6,1.6,0,0,1-3.2,0l-.4-14.9h7.4l-.4,14.9a1.7,1.7,0,0,1-3.4,0Z" fill="#472dc2"/>
    <path id="Path_660" data-name="Path 660" d="M25,1.7a4.5,4.5,0,1,1-4.5,4.5A4.481,4.481,0,0,1,25,1.7Z" fill="#fc0"/>
    <path id="Path_661" data-name="Path 661" d="M27.6,16.2v1.1a2.7,2.7,0,0,1-5.4,0V16.2a2.7,2.7,0,0,1,5.4,0Z" fill="#472dc2"/>
    <path id="Path_662" data-name="Path 662" d="M12.1,30.7v1.1H4.7v.7A1.538,1.538,0,0,1,3.2,34h0a1.538,1.538,0,0,1-1.5-1.5V23.9a2.8,2.8,0,0,1,2.8-2.8H6l2.4,2.3,2.5-2.3h1.7a2.814,2.814,0,0,1,2.5,3.1v8.3a1.5,1.5,0,0,1-3,0V30.7Z" fill="#fc0"/>
    <path id="Path_663" data-name="Path 663" d="M8.4,46.7a1.6,1.6,0,0,1-3.2,0L4.7,31.9h7.4l-.4,14.9a1.645,1.645,0,0,1-1.6,1.6A1.75,1.75,0,0,1,8.4,46.7Z" fill="#fc0"/>
    <path id="Path_664" data-name="Path 664" d="M8.4,1.7A4.5,4.5,0,1,1,3.9,6.2,4.481,4.481,0,0,1,8.4,1.7Z" fill="url(#linear-gradient)"/>
    <path id="Path_665" data-name="Path 665" d="M11,16.2v1.1a2.7,2.7,0,1,1-5.4,0V16.2a2.7,2.7,0,0,1,5.4,0Z" fill="#fc0"/>
    <path id="Path_666" data-name="Path 666" d="M24.3,8.2h0a.6.6,0,0,1-.6-.3L22.6,6.5a.755.755,0,0,1-.1-.8c.1-.3.3-.4.6-.5a.779.779,0,0,1,.7.3l.5.7,1.9-1.8a.778.778,0,0,1,1.1,1.1L24.9,8A.735.735,0,0,1,24.3,8.2Z" fill="#fff"/>
    <path id="Path_667" data-name="Path 667" d="M9.5,6.2l1.1-1.1A.778.778,0,0,0,9.5,4L8.4,5.1,7.3,4A.778.778,0,0,0,6.2,5.1L7.3,6.2,6.2,7.3A.778.778,0,0,0,7.3,8.4L8.4,7.3,9.5,8.4a.778.778,0,1,0,1.1-1.1Z" fill="#fff"/>
    <path id="Path_668" data-name="Path 668" d="M41.5,1.7A4.5,4.5,0,1,1,37,6.2,4.481,4.481,0,0,1,41.5,1.7Z" fill="url(#linear-gradient-2)"/>
    <path id="Path_669" data-name="Path 669" d="M42.6,6.2l1.1-1.1A.778.778,0,1,0,42.6,4L41.5,5.1,40.4,4a.778.778,0,1,0-1.1,1.1l1.1,1.1L39.3,7.3a.778.778,0,1,0,1.1,1.1l1.1-1.1,1.1,1.1a.778.778,0,1,0,1.1-1.1Z" fill="#fff"/>
  </g>
</svg>
