<svg id="tj-logo" xmlns="http://www.w3.org/2000/svg" width="171.917" height="29.689" viewBox="0 0 171.917 29.689">
  <g id="tj_logo-04" data-name="tj logo-04">
    <path id="Shape" d="M17.879,17.85h0A2.912,2.912,0,0,1,15.828,17L13.365,14.54a5.869,5.869,0,0,1-3.937,1.533H9.4a6.283,6.283,0,0,1-.733-.044,5.9,5.9,0,0,1-3.431-1.652L2.624,11.784l-.9-.9a5.8,5.8,0,0,1-1.071-6.8A5.987,5.987,0,0,1,1.726,2.639l.93-.929A5.839,5.839,0,0,1,6.773,0H6.83a5.923,5.923,0,0,1,4.15,1.71l2.534,2.506.978.973a5.785,5.785,0,0,1,.175,8.06l2.47,2.463a1.053,1.053,0,0,0,.864.31,1.355,1.355,0,0,0,.961-.649.021.021,0,0,0,0-.018,12.53,12.53,0,0,0,.826-1.387l1.6.851a16.567,16.567,0,0,1-.915,1.544v.017A3.145,3.145,0,0,1,18.2,17.83,2.5,2.5,0,0,1,17.879,17.85ZM6.821,1.835A4.1,4.1,0,0,0,3.953,3.013l-.931.915a4.034,4.034,0,0,0-.735,1,3.915,3.915,0,0,0-.45,1.835A3.978,3.978,0,0,0,3.023,9.616l1.126,1.119,2.388,2.358a4.026,4.026,0,0,0,2.02,1.083,4.087,4.087,0,0,0,.83.085,4.141,4.141,0,0,0,2.874-1.168l.93-.924a4.093,4.093,0,0,0,.83-1.183L14.03,11a3.972,3.972,0,0,0-.83-4.5l-1.213-1.2-2.3-2.281a3.967,3.967,0,0,0-1.9-1.061A4.047,4.047,0,0,0,6.821,1.835Zm3.985,9.792a.927.927,0,0,1-.649-.267L8.288,9.505l-.036-.037a.912.912,0,0,1-.069-1.123.554.554,0,0,1,.105-.128.794.794,0,0,1,.16-.13.93.93,0,0,1,1.137.139l.972.964.9.885a.91.91,0,0,1,.029,1.257l-.029.03A.927.927,0,0,1,10.806,11.627Z" transform="translate(6.852 6.795)" fill="#f4a86f"/>
    <path id="Path" d="M2.59,15.333.963,14.486A12.8,12.8,0,0,0,2.176,6.115,12.758,12.758,0,0,0,0,1.041L1.508,0A14.724,14.724,0,0,1,3.974,5.76,14.57,14.57,0,0,1,2.59,15.333Z" transform="translate(25.678 6.283)" fill="#f2796e"/>
    <path id="Path-2" data-name="Path" d="M13.084,6.292,11.575,7.333A13.2,13.2,0,0,0,.114,1.836L0,.025A15.03,15.03,0,0,1,13.084,6.292Z" transform="translate(14.103)" fill="#6186bd"/>
    <path id="Path-3" data-name="Path" d="M12.475,1.811a14.041,14.041,0,0,0-1.724.221,13.085,13.085,0,0,0-9.127,6.7L0,7.895A15,15,0,0,1,12.365,0Z" transform="translate(1.742 0.025)" fill="#d57fb3"/>
    <path id="Path-4" data-name="Path" d="M4.182,14.349l-1.5,1.046A14.684,14.684,0,0,1,1.744,0L3.366.836a12.895,12.895,0,0,0,.815,13.513Z" transform="translate(0 7.918)" fill="#00a9da"/>
    <path id="Path-5" data-name="Path" d="M13.185,6.505a.95.95,0,0,1-.283.659.87.87,0,0,1-.649.25A14.948,14.948,0,0,1,0,1.046L1.5,0A13.127,13.127,0,0,0,12.254,5.588h.015a.875.875,0,0,1,.641.26A.955.955,0,0,1,13.185,6.505Z" transform="translate(2.69 22.274)" fill="#d5e27e"/>
  </g>
  <g id="TJ" transform="translate(36.87 3.422)">
    <path id="Path-6" data-name="Path" d="M5.031,16.726A3.012,3.012,0,0,1,2.764,15.9a3.265,3.265,0,0,1-.79-2.377V5.852H.472a.5.5,0,0,1-.331-.115A.486.486,0,0,1,0,5.367V4.485l2.05-.256L2.548.4A.524.524,0,0,1,2.713.115.508.508,0,0,1,3.057,0H4.165V4.306h3.6V5.865h-3.6v7.5a1.613,1.613,0,0,0,.382,1.176,1.271,1.271,0,0,0,.981.383,2.044,2.044,0,0,0,.6-.089,4.679,4.679,0,0,0,.433-.2l.357-.2a.369.369,0,0,1,.216-.1.382.382,0,0,1,.318.217l.637,1.048a4.072,4.072,0,0,1-1.363.831A4.583,4.583,0,0,1,5.031,16.726Z" transform="translate(0 1.661)" fill="#24272c"/>
    <path id="Shape-2" data-name="Shape" d="M5.953,12.854a6.6,6.6,0,0,1-2.359-.435,5.218,5.218,0,0,1-1.872-1.278,5.82,5.82,0,0,1-1.274-2.1A8.222,8.222,0,0,1,0,6.184,7.265,7.265,0,0,1,.4,3.744a5.576,5.576,0,0,1,1.21-1.98A5.125,5.125,0,0,1,3.427.486,5.96,5.96,0,0,1,5.79,0h.133A5.524,5.524,0,0,1,7.948.383,4.6,4.6,0,0,1,9.591,1.469,4.868,4.868,0,0,1,10.673,3.22a6.533,6.533,0,0,1,.4,2.377,1.6,1.6,0,0,1-.1.689.471.471,0,0,1-.446.205H2.205a7.474,7.474,0,0,0,.319,2.057A4.192,4.192,0,0,0,3.338,10a3.208,3.208,0,0,0,1.273.881,4.292,4.292,0,0,0,1.569.294h.131a4.615,4.615,0,0,0,1.319-.193,5.787,5.787,0,0,0,1.031-.422,5.942,5.942,0,0,0,.725-.409.944.944,0,0,1,.5-.192h.024a.487.487,0,0,1,.4.2l.56.754a4.154,4.154,0,0,1-.967.856,6.016,6.016,0,0,1-1.274.6,7.458,7.458,0,0,1-1.273.358,8.31,8.31,0,0,1-1.375.115ZM5.68,1.589a3.341,3.341,0,0,0-2.316.928A4.269,4.269,0,0,0,2.23,5.073L9.095,5.06a4.348,4.348,0,0,0-.217-1.393,3.2,3.2,0,0,0-.624-1.1,2.863,2.863,0,0,0-1.006-.715A3.184,3.184,0,0,0,5.992,1.6H5.911C5.834,1.592,5.757,1.589,5.68,1.589Z" transform="translate(11.676 5.507)" fill="#24272c"/>
    <path id="Path-7" data-name="Path" d="M9.374,2.276a1,1,0,0,1-.191.2.419.419,0,0,1-.267.077A.712.712,0,0,1,8.508,2.4L7.96,2.059a4.932,4.932,0,0,0-.8-.332,4.379,4.379,0,0,0-2.789.166A3.122,3.122,0,0,0,3.2,2.838a4.069,4.069,0,0,0-.713,1.495,7.242,7.242,0,0,0-.242,2.032A7.473,7.473,0,0,0,2.5,8.384a4.3,4.3,0,0,0,.739,1.469,2.956,2.956,0,0,0,1.146.92,3.555,3.555,0,0,0,1.5.319A3.808,3.808,0,0,0,7.158,10.9a3.319,3.319,0,0,0,.853-.434,6.788,6.788,0,0,0,.573-.422.712.712,0,0,1,.446-.192.483.483,0,0,1,.42.2l.611.8a4.221,4.221,0,0,1-.917.869,6.258,6.258,0,0,1-1.121.6,6.668,6.668,0,0,1-1.273.345,7.615,7.615,0,0,1-1.273.115A5.4,5.4,0,0,1,3.3,12.357,4.789,4.789,0,0,1,1.568,11.08,5.78,5.78,0,0,1,.409,9.061,8.19,8.19,0,0,1,0,6.365,7.947,7.947,0,0,1,.4,3.809,5.986,5.986,0,0,1,1.517,1.765,5.093,5.093,0,0,1,3.35.487,6.183,6.183,0,0,1,5.9,0,5.688,5.688,0,0,1,8.215.436,5.424,5.424,0,0,1,10,1.637Z" transform="translate(27.174 5.633)" fill="#24272c"/>
    <path id="Path-8" data-name="Path" d="M2.254,7.347a6.611,6.611,0,0,1,1.77-1.354,4.876,4.876,0,0,1,2.241-.511,4.368,4.368,0,0,1,1.8.345,3.681,3.681,0,0,1,1.273.958,4.349,4.349,0,0,1,.79,1.508,6.537,6.537,0,0,1,.267,1.929v7.96H8.175v-7.96a3.343,3.343,0,0,0-.637-2.2,2.39,2.39,0,0,0-1.961-.792A3.81,3.81,0,0,0,3.757,7.7,6.053,6.053,0,0,0,2.2,8.982v9.2H0V0H2.2Z" transform="translate(42.036)" fill="#24272c"/>
    <path id="Shape-3" data-name="Shape" d="M.879,22.185a3.145,3.145,0,0,1-.318-.016A2.242,2.242,0,0,1,0,21.977v-.6a.18.18,0,0,1,.1-.128.348.348,0,0,1,.083-.01.34.34,0,0,1,.082.01H.535a2.413,2.413,0,0,0,1.872-.511,2.2,2.2,0,0,0,.484-1.546V5.329H4.113v13.85a3.563,3.563,0,0,1-.191,1.188,2.548,2.548,0,0,1-.547.946,2.472,2.472,0,0,1-.9.626,3.3,3.3,0,0,1-1.212.23H1.2A3.144,3.144,0,0,1,.879,22.185ZM3.492,2.173a.925.925,0,0,1-.4-.09.959.959,0,0,1-.344-.229,1.292,1.292,0,0,1-.242-.345,1.132,1.132,0,0,1-.077-.41A1.289,1.289,0,0,1,2.508.665,1.283,1.283,0,0,1,2.75.32.828.828,0,0,1,3.094.09a.925.925,0,0,1,.4-.09h.035a.917.917,0,0,1,.4.09.954.954,0,0,1,.356.23,1.283,1.283,0,0,1,.242.346,1.04,1.04,0,0,1,.127.434H4.622a.919.919,0,0,1-.1.41,1.292,1.292,0,0,1-.242.345,1.127,1.127,0,0,1-.356.229.893.893,0,0,1-.391.09h-.04Z" transform="translate(55.751 0.574)" fill="#24272c"/>
    <path id="Shape-4" data-name="Shape" d="M5.578,12.549A6.4,6.4,0,0,1,3.223,12.1a4.878,4.878,0,0,1-1.758-1.277A5.565,5.565,0,0,1,.37,8.831,8.24,8.24,0,0,1,0,6.275,8.345,8.345,0,0,1,.37,3.719a5.565,5.565,0,0,1,1.1-1.993A5.067,5.067,0,0,1,3.223.449,5.747,5.747,0,0,1,5.456,0h.123l.134,0A5.691,5.691,0,0,1,7.934.449,4.824,4.824,0,0,1,9.691,1.726a5.537,5.537,0,0,1,1.083,1.993,8.33,8.33,0,0,1,.382,2.555,8.217,8.217,0,0,1-.382,2.556,5.537,5.537,0,0,1-1.083,1.994A4.65,4.65,0,0,1,7.934,12.1,6.4,6.4,0,0,1,5.578,12.549ZM5.455.882a4.448,4.448,0,0,0-1.813.384A3.606,3.606,0,0,0,2.28,2.454a4.658,4.658,0,0,0-.828,1.7,8.128,8.128,0,0,0-.28,2.223,8.042,8.042,0,0,0,.28,2.236,4.614,4.614,0,0,0,.828,1.636,3.564,3.564,0,0,0,1.362,1.085,4.439,4.439,0,0,0,1.815.385l.121,0h.114a4.418,4.418,0,0,0,1.8-.385,3.707,3.707,0,0,0,1.376-1.085,4.819,4.819,0,0,0,.814-1.687,8.606,8.606,0,0,0,.242-2.274,8.7,8.7,0,0,0-.267-2.224,4.884,4.884,0,0,0-.815-1.7,3.75,3.75,0,0,0-1.375-1.1,4.374,4.374,0,0,0-1.8-.385H5.455Z" transform="translate(65.759 5.71)" fill="#24272c"/>
    <path id="Path-9" data-name="Path" d="M8.895,1.892l-.115.1a.267.267,0,0,1-.153,0A.6.6,0,0,1,8.3,1.828a5.524,5.524,0,0,0-.56-.358,4.728,4.728,0,0,0-.9-.371A4.252,4.252,0,0,0,5.558.934a4.393,4.393,0,0,0-1.885.383A3.682,3.682,0,0,0,2.286,2.391a5.194,5.194,0,0,0-.853,1.7,8.229,8.229,0,0,0-.28,2.249,8.332,8.332,0,0,0,.293,2.3A5,5,0,0,0,2.3,10.325a3.554,3.554,0,0,0,1.35,1.035,4.1,4.1,0,0,0,1.745.371,4.456,4.456,0,0,0,1.477-.217,4.857,4.857,0,0,0,.993-.46,3.821,3.821,0,0,0,.6-.447.674.674,0,0,1,.369-.217.293.293,0,0,1,.255.128l.306.4a4.094,4.094,0,0,1-.713.69,4.758,4.758,0,0,1-.968.549,5.577,5.577,0,0,1-1.184.371,6.346,6.346,0,0,1-1.273.128,5.218,5.218,0,0,1-2.127-.422,4.841,4.841,0,0,1-1.668-1.278A6.024,6.024,0,0,1,.376,8.971a9.319,9.319,0,0,1,0-5.239A5.794,5.794,0,0,1,1.458,1.739,4.789,4.789,0,0,1,3.2.461,5.663,5.663,0,0,1,5.558,0,5.472,5.472,0,0,1,7.672.385a5.257,5.257,0,0,1,1.6,1.035Z" transform="translate(82.066 5.659)" fill="#24272c"/>
    <path id="Path-10" data-name="Path" d="M1.133,0V10.95h.56a1.383,1.383,0,0,0,.331,0,.866.866,0,0,0,.331-.243L7.271,6.031a1.5,1.5,0,0,1,.267-.23.825.825,0,0,1,.369-.077H8.939l-5.4,5.111a1.746,1.746,0,0,1-.471.409,1.273,1.273,0,0,1,.331.23,2.054,2.054,0,0,1,.28.294l5.667,6.2H8.328a.876.876,0,0,1-.318,0,.612.612,0,0,1-.255-.23L2.661,12.2l-.191-.179a.764.764,0,0,0-.191-.115.609.609,0,0,0-.229,0H1.184v6.2H0V.217Z" transform="translate(96.793 0.23)" fill="#24272c"/>
    <path id="Shape-5" data-name="Shape" d="M5.556,12.65a5.977,5.977,0,0,1-2.244-.435,5.131,5.131,0,0,1-1.77-1.278A5.792,5.792,0,0,1,.409,8.881,8.869,8.869,0,0,1,0,6.1,7.477,7.477,0,0,1,.382,3.655a5.591,5.591,0,0,1,1.083-1.93A4.982,4.982,0,0,1,3.2.448,5.841,5.841,0,0,1,5.442,0h.14A5.038,5.038,0,0,1,7.45.358,4.3,4.3,0,0,1,8.978,1.393,4.662,4.662,0,0,1,10.01,3.08a6.4,6.4,0,0,1,.383,2.3.641.641,0,0,1-.076.37.291.291,0,0,1-.222.1h-.02l-8.915.013V6.1a8.217,8.217,0,0,0,.319,2.427,5,5,0,0,0,.917,1.763A3.837,3.837,0,0,0,3.821,11.36a4.811,4.811,0,0,0,1.825.358h.115a5.8,5.8,0,0,0,1.524-.2,6.763,6.763,0,0,0,1.147-.46,5.259,5.259,0,0,0,.725-.46.757.757,0,0,1,.4-.2h.014a.269.269,0,0,1,.228.128l.318.4a3.47,3.47,0,0,1-.777.689,5.353,5.353,0,0,1-1.082.55,7.85,7.85,0,0,1-1.274.357A7.16,7.16,0,0,1,5.6,12.65ZM5.439.894A4.395,4.395,0,0,0,3.821,1.2a3.492,3.492,0,0,0-1.273.843,4.155,4.155,0,0,0-.879,1.278,6.121,6.121,0,0,0-.446,1.75l8.112.038a5.45,5.45,0,0,0-.28-1.776,4,4,0,0,0-.777-1.278,3.506,3.506,0,0,0-1.236-.869A3.914,3.914,0,0,0,5.548.894H5.439Z" transform="translate(109.387 5.698)" fill="#24272c"/>
    <path id="Path-11" data-name="Path" d="M11.461,0,4.431,16.24a.907.907,0,0,1-.191.281.521.521,0,0,1-.344.1H3.031l2.152-4.791L0,0H.968A.47.47,0,0,1,1.261.09a.536.536,0,0,1,.153.2L5.578,9.852a1.506,1.506,0,0,0,.127.383c.038.128.064.256.1.383l.127-.383.14-.383L10.149.294a.587.587,0,0,1,.178-.217A.394.394,0,0,1,10.569,0Z" transform="translate(123.586 5.903)" fill="#24272c"/>
  </g>
</svg>
